<svg width="197" height="197" viewBox="0 0 197 197" fill="none" xmlns="http://www.w3.org/2000/svg">
<rect width="197" height="197" fill="#1E1E1E"/>
<path d="M1 99.0939C0.999996 -36.8753 196 -26.4162 196 99.094C196 238.55 1 217.632 1 99.0939Z" fill="black" stroke="black"/>
<path d="M54.0938 99.6449V94.3267L72.6051 86.554V92.3707L60.3835 96.9347L60.5753 96.6534V97.331L60.3835 97.0369L72.6051 101.614V107.418L54.0938 99.6449ZM85.0472 83.8182L84.4592 101.984H79.2049L78.6168 83.8182H85.0472ZM81.8256 110.371C80.9137 110.371 80.1296 110.047 79.4734 109.399C78.8256 108.751 78.5018 107.967 78.5018 107.047C78.5018 106.143 78.8256 105.372 79.4734 104.733C80.1296 104.085 80.9137 103.761 81.8256 103.761C82.7035 103.761 83.4748 104.085 84.1396 104.733C84.8129 105.372 85.1495 106.143 85.1495 107.047C85.1495 107.661 84.9918 108.219 84.6765 108.722C84.3697 109.224 83.9648 109.625 83.462 109.923C82.9677 110.222 82.4222 110.371 81.8256 110.371ZM102.498 94.5057V99.3125H90.3782V94.5057H102.498ZM114.262 83.8182L113.674 101.984H108.42L107.832 83.8182H114.262ZM111.04 110.371C110.129 110.371 109.344 110.047 108.688 109.399C108.04 108.751 107.717 107.967 107.717 107.047C107.717 106.143 108.04 105.372 108.688 104.733C109.344 104.085 110.129 103.761 111.04 103.761C111.918 103.761 112.69 104.085 113.354 104.733C114.028 105.372 114.364 106.143 114.364 107.047C114.364 107.661 114.207 108.219 113.891 108.722C113.585 109.224 113.18 109.625 112.677 109.923C112.183 110.222 111.637 110.371 111.04 110.371ZM138.769 99.6449L120.258 107.418V101.614L132.479 97.0369L132.3 97.331V96.6534L132.479 96.9347L120.258 92.3707V86.554L138.769 94.3267V99.6449Z" fill="white"/>
</svg>
